<?xml version="1.0" standalone="no"?><!DOCTYPE svg PUBLIC "-//W3C//DTD SVG 1.1//EN" "http://www.w3.org/Graphics/SVG/1.1/DTD/svg11.dtd"><svg class="icon" width="200px" height="200.00px" viewBox="0 0 1024 1024" version="1.1" xmlns="http://www.w3.org/2000/svg"><path d="M785.904 624c-0.64 0-1.264-0.096-1.904-0.112V624h-97.456l29.088-64H784a96 96 0 1 0-71.408-160h-26.496a168 168 0 1 0-332.192 0h-26.496A96 96 0 1 0 240 558.56V560h144l-32 64h-112v-0.72A160 160 0 0 1 254.096 304a156.096 156.096 0 0 1 40.544 5.504 236.176 236.176 0 0 1 450.72 0A156.096 156.096 0 0 1 785.904 304c88.368 0 160 71.632 160 160s-71.632 160-160 160zM480 464h112l-64 128h128L464 848s-38.624 42.816-16-16c16.336-42.48 96-176 96-176h-144l80-192z" fill="#000000" /><path d="M613.12 552l235.312-235.312a160.32 160.32 0 0 1 53.44 37.072L703.632 552H613.12zM233.152 622.48a159.2 159.2 0 0 1-65.824-24.688l437.92-437.92a236.48 236.48 0 0 1 58 32.512L233.152 622.48zM549.12 424l170.336-170.352a236.048 236.048 0 0 1 25.904 55.856c3.776-1.024 7.584-1.92 11.424-2.656L639.632 424H549.12z" fill="#000000" /></svg>